<?xml version="1.0" standalone="no"?>
<!DOCTYPE svg PUBLIC "-//W3C//DTD SVG 20010904//EN"
 "http://www.w3.org/TR/2001/REC-SVG-20010904/DTD/svg10.dtd">
<svg version="1.0" xmlns="http://www.w3.org/2000/svg"
 width="801.000000pt" height="800.000000pt" viewBox="0 0 801.000000 800.000000"
 preserveAspectRatio="xMidYMid meet">

<g transform="translate(0.000000,800.000000) scale(0.100000,-0.100000)"
fill="#000000" stroke="none">
<path d="M2296 5417 c-32 -32 -33 -55 -5 -110 99 -196 278 -330 499 -373 65
-13 129 -14 463 -3 213 6 390 10 392 7 2 -2 -111 -125 -251 -273 -268 -282
-291 -310 -343 -414 -87 -172 -95 -428 -19 -587 26 -55 61 -75 102 -58 27 10
1573 1636 1588 1671 14 29 2 70 -25 87 -18 11 -212 19 -1027 40 -553 14 -1082
29 -1177 32 l-171 7 -26 -26z"/>
<path d="M4862 5123 c-12 -5 -1716 -1870 -1760 -1927 -43 -56 -21 -150 44
-181 40 -19 56 -19 98 -1 23 9 296 302 897 962 476 522 872 960 882 974 35 50
13 136 -43 165 -28 14 -91 19 -118 8z"/>
<path d="M4532 4093 c-1262 -1446 -1242 -1423 -1242 -1459 0 -59 26 -74 128
-73 48 0 581 8 1184 17 1045 17 1097 18 1117 36 32 29 27 78 -15 147 -72 120
-203 228 -342 281 -137 54 -185 55 -618 24 -212 -15 -388 -26 -390 -23 -2 2
100 123 227 268 274 312 281 321 330 424 86 182 91 406 13 584 -29 66 -46 81
-91 81 -31 0 -51 -21 -301 -307z"/>
</g>
</svg>
